<mxfile host="Electron" modified="2023-10-21T15:15:15.922Z" agent="Mozilla/5.0 (Windows NT 10.0; Win64; x64) AppleWebKit/537.36 (KHTML, like Gecko) draw.io/21.2.8 Chrome/112.0.5615.165 Electron/24.2.0 Safari/537.36" etag="k_ew3VlN5mGqOf2NwIJF" version="21.2.8" type="device">
  <diagram name="第 1 页" id="oSoOq4cKzJZ6KcOtxv8w">
    <mxGraphModel dx="1927" dy="1986" grid="1" gridSize="10" guides="1" tooltips="1" connect="1" arrows="1" fold="1" page="1" pageScale="1" pageWidth="827" pageHeight="1169" math="0" shadow="0">
      <root>
        <mxCell id="0" />
        <mxCell id="1" parent="0" />
        <mxCell id="JA8_qsAwsX0RzaKksrr4-3" value="" style="edgeStyle=orthogonalEdgeStyle;rounded=0;orthogonalLoop=1;jettySize=auto;html=1;" edge="1" parent="1" source="0xJEWBCu3Yegg7E7fp9d-4" target="0xJEWBCu3Yegg7E7fp9d-11">
          <mxGeometry relative="1" as="geometry" />
        </mxCell>
        <mxCell id="0xJEWBCu3Yegg7E7fp9d-4" value="&lt;font style=&quot;font-size: 32px;&quot;&gt;Q&lt;/font&gt;" style="text;html=1;strokeColor=none;fillColor=none;align=center;verticalAlign=middle;whiteSpace=wrap;rounded=0;" parent="1" vertex="1">
          <mxGeometry x="145" y="500" width="66" height="40" as="geometry" />
        </mxCell>
        <mxCell id="JA8_qsAwsX0RzaKksrr4-4" value="" style="edgeStyle=orthogonalEdgeStyle;rounded=0;orthogonalLoop=1;jettySize=auto;html=1;" edge="1" parent="1" source="0xJEWBCu3Yegg7E7fp9d-5" target="JA8_qsAwsX0RzaKksrr4-1">
          <mxGeometry relative="1" as="geometry" />
        </mxCell>
        <mxCell id="0xJEWBCu3Yegg7E7fp9d-5" value="&lt;span style=&quot;font-size: 32px;&quot;&gt;K&lt;/span&gt;" style="text;html=1;strokeColor=none;fillColor=none;align=center;verticalAlign=middle;whiteSpace=wrap;rounded=0;" parent="1" vertex="1">
          <mxGeometry x="406" y="500" width="16" height="40" as="geometry" />
        </mxCell>
        <mxCell id="JA8_qsAwsX0RzaKksrr4-5" value="" style="edgeStyle=orthogonalEdgeStyle;rounded=0;orthogonalLoop=1;jettySize=auto;html=1;" edge="1" parent="1" source="0xJEWBCu3Yegg7E7fp9d-6" target="JA8_qsAwsX0RzaKksrr4-2">
          <mxGeometry relative="1" as="geometry" />
        </mxCell>
        <mxCell id="0xJEWBCu3Yegg7E7fp9d-6" value="&lt;span style=&quot;font-size: 32px;&quot;&gt;V&lt;/span&gt;" style="text;html=1;strokeColor=none;fillColor=none;align=center;verticalAlign=middle;whiteSpace=wrap;rounded=0;" parent="1" vertex="1">
          <mxGeometry x="620" y="500" width="66" height="40" as="geometry" />
        </mxCell>
        <mxCell id="JA8_qsAwsX0RzaKksrr4-7" value="" style="edgeStyle=orthogonalEdgeStyle;rounded=0;orthogonalLoop=1;jettySize=auto;html=1;" edge="1" parent="1" source="0xJEWBCu3Yegg7E7fp9d-11" target="JA8_qsAwsX0RzaKksrr4-6">
          <mxGeometry relative="1" as="geometry" />
        </mxCell>
        <mxCell id="0xJEWBCu3Yegg7E7fp9d-11" value="&lt;span style=&quot;font-size: 32px;&quot;&gt;Linear&lt;/span&gt;" style="rounded=1;whiteSpace=wrap;html=1;" parent="1" vertex="1">
          <mxGeometry x="99.5" y="400" width="157" height="50" as="geometry" />
        </mxCell>
        <mxCell id="0xJEWBCu3Yegg7E7fp9d-22" value="&lt;font style=&quot;font-size: 14px;&quot;&gt;(batch_size, nq, d_model)&lt;/font&gt;" style="text;html=1;strokeColor=none;fillColor=none;align=center;verticalAlign=middle;whiteSpace=wrap;rounded=0;" parent="1" vertex="1">
          <mxGeometry x="88" y="540" width="180" height="30" as="geometry" />
        </mxCell>
        <mxCell id="0xJEWBCu3Yegg7E7fp9d-23" value="&lt;font style=&quot;font-size: 14px;&quot;&gt;(batch_size, seq_len, d_model)&lt;/font&gt;" style="text;html=1;strokeColor=none;fillColor=none;align=center;verticalAlign=middle;whiteSpace=wrap;rounded=0;" parent="1" vertex="1">
          <mxGeometry x="320" y="540" width="212" height="30" as="geometry" />
        </mxCell>
        <mxCell id="0xJEWBCu3Yegg7E7fp9d-24" value="&lt;font style=&quot;font-size: 14px;&quot;&gt;(batch_size, seq_len, d_model)&lt;/font&gt;" style="text;html=1;strokeColor=none;fillColor=none;align=center;verticalAlign=middle;whiteSpace=wrap;rounded=0;" parent="1" vertex="1">
          <mxGeometry x="570" y="540" width="200" height="30" as="geometry" />
        </mxCell>
        <mxCell id="JA8_qsAwsX0RzaKksrr4-9" value="" style="edgeStyle=orthogonalEdgeStyle;rounded=0;orthogonalLoop=1;jettySize=auto;html=1;" edge="1" parent="1" source="JA8_qsAwsX0RzaKksrr4-1" target="JA8_qsAwsX0RzaKksrr4-8">
          <mxGeometry relative="1" as="geometry" />
        </mxCell>
        <mxCell id="JA8_qsAwsX0RzaKksrr4-1" value="&lt;span style=&quot;font-size: 32px;&quot;&gt;Linear&lt;/span&gt;" style="rounded=1;whiteSpace=wrap;html=1;" vertex="1" parent="1">
          <mxGeometry x="335.5" y="400" width="157" height="50" as="geometry" />
        </mxCell>
        <mxCell id="JA8_qsAwsX0RzaKksrr4-11" value="" style="edgeStyle=orthogonalEdgeStyle;rounded=0;orthogonalLoop=1;jettySize=auto;html=1;" edge="1" parent="1" source="JA8_qsAwsX0RzaKksrr4-2" target="JA8_qsAwsX0RzaKksrr4-10">
          <mxGeometry relative="1" as="geometry" />
        </mxCell>
        <mxCell id="JA8_qsAwsX0RzaKksrr4-2" value="&lt;span style=&quot;font-size: 32px;&quot;&gt;Linear&lt;/span&gt;" style="rounded=1;whiteSpace=wrap;html=1;" vertex="1" parent="1">
          <mxGeometry x="574.5" y="400" width="157" height="50" as="geometry" />
        </mxCell>
        <mxCell id="JA8_qsAwsX0RzaKksrr4-18" value="" style="edgeStyle=orthogonalEdgeStyle;rounded=0;orthogonalLoop=1;jettySize=auto;html=1;" edge="1" parent="1" source="JA8_qsAwsX0RzaKksrr4-6" target="JA8_qsAwsX0RzaKksrr4-17">
          <mxGeometry relative="1" as="geometry" />
        </mxCell>
        <mxCell id="JA8_qsAwsX0RzaKksrr4-6" value="&lt;span style=&quot;font-size: 32px;&quot;&gt;reshape&lt;/span&gt;" style="rounded=1;whiteSpace=wrap;html=1;" vertex="1" parent="1">
          <mxGeometry x="99.5" y="300" width="157" height="50" as="geometry" />
        </mxCell>
        <mxCell id="JA8_qsAwsX0RzaKksrr4-20" value="" style="edgeStyle=orthogonalEdgeStyle;rounded=0;orthogonalLoop=1;jettySize=auto;html=1;" edge="1" parent="1" source="JA8_qsAwsX0RzaKksrr4-8" target="JA8_qsAwsX0RzaKksrr4-19">
          <mxGeometry relative="1" as="geometry" />
        </mxCell>
        <mxCell id="JA8_qsAwsX0RzaKksrr4-8" value="&lt;span style=&quot;font-size: 32px;&quot;&gt;reshape&lt;/span&gt;" style="rounded=1;whiteSpace=wrap;html=1;" vertex="1" parent="1">
          <mxGeometry x="335" y="300" width="157" height="50" as="geometry" />
        </mxCell>
        <mxCell id="JA8_qsAwsX0RzaKksrr4-22" value="" style="edgeStyle=orthogonalEdgeStyle;rounded=0;orthogonalLoop=1;jettySize=auto;html=1;" edge="1" parent="1" source="JA8_qsAwsX0RzaKksrr4-10" target="JA8_qsAwsX0RzaKksrr4-21">
          <mxGeometry relative="1" as="geometry" />
        </mxCell>
        <mxCell id="JA8_qsAwsX0RzaKksrr4-10" value="&lt;span style=&quot;font-size: 32px;&quot;&gt;reshape&lt;/span&gt;" style="rounded=1;whiteSpace=wrap;html=1;" vertex="1" parent="1">
          <mxGeometry x="574.5" y="300" width="157" height="50" as="geometry" />
        </mxCell>
        <mxCell id="JA8_qsAwsX0RzaKksrr4-12" value="&lt;font style=&quot;font-size: 14px;&quot;&gt;(batch_size, nq, n_heads * d_k)&lt;/font&gt;" style="text;html=1;strokeColor=none;fillColor=none;align=center;verticalAlign=middle;whiteSpace=wrap;rounded=0;" vertex="1" parent="1">
          <mxGeometry x="-30" y="370" width="219.5" height="30" as="geometry" />
        </mxCell>
        <mxCell id="JA8_qsAwsX0RzaKksrr4-13" value="&lt;font style=&quot;font-size: 14px;&quot;&gt;(batch_size, seq_len, n_heads * d_k)&lt;/font&gt;" style="text;html=1;strokeColor=none;fillColor=none;align=center;verticalAlign=middle;whiteSpace=wrap;rounded=0;" vertex="1" parent="1">
          <mxGeometry x="220" y="370" width="237.5" height="30" as="geometry" />
        </mxCell>
        <mxCell id="JA8_qsAwsX0RzaKksrr4-15" value="&lt;font style=&quot;font-size: 14px;&quot;&gt;(batch_size, seq_len, n_heads * d_v)&lt;/font&gt;" style="text;html=1;strokeColor=none;fillColor=none;align=center;verticalAlign=middle;whiteSpace=wrap;rounded=0;" vertex="1" parent="1">
          <mxGeometry x="480" y="370" width="237.5" height="30" as="geometry" />
        </mxCell>
        <mxCell id="JA8_qsAwsX0RzaKksrr4-30" style="edgeStyle=orthogonalEdgeStyle;rounded=0;orthogonalLoop=1;jettySize=auto;html=1;entryX=0.25;entryY=1;entryDx=0;entryDy=0;" edge="1" parent="1" source="JA8_qsAwsX0RzaKksrr4-17" target="JA8_qsAwsX0RzaKksrr4-29">
          <mxGeometry relative="1" as="geometry" />
        </mxCell>
        <mxCell id="JA8_qsAwsX0RzaKksrr4-17" value="&lt;span style=&quot;font-size: 32px;&quot;&gt;permute&lt;/span&gt;" style="rounded=1;whiteSpace=wrap;html=1;" vertex="1" parent="1">
          <mxGeometry x="99.5" y="200" width="157" height="50" as="geometry" />
        </mxCell>
        <mxCell id="JA8_qsAwsX0RzaKksrr4-31" style="edgeStyle=orthogonalEdgeStyle;rounded=0;orthogonalLoop=1;jettySize=auto;html=1;entryX=0.75;entryY=1;entryDx=0;entryDy=0;" edge="1" parent="1" source="JA8_qsAwsX0RzaKksrr4-19" target="JA8_qsAwsX0RzaKksrr4-29">
          <mxGeometry relative="1" as="geometry" />
        </mxCell>
        <mxCell id="JA8_qsAwsX0RzaKksrr4-19" value="&lt;span style=&quot;font-size: 32px;&quot;&gt;permute&lt;/span&gt;" style="rounded=1;whiteSpace=wrap;html=1;" vertex="1" parent="1">
          <mxGeometry x="335.5" y="200" width="157" height="50" as="geometry" />
        </mxCell>
        <mxCell id="JA8_qsAwsX0RzaKksrr4-44" style="edgeStyle=orthogonalEdgeStyle;rounded=0;orthogonalLoop=1;jettySize=auto;html=1;entryX=0.75;entryY=1;entryDx=0;entryDy=0;" edge="1" parent="1" source="JA8_qsAwsX0RzaKksrr4-21" target="JA8_qsAwsX0RzaKksrr4-42">
          <mxGeometry relative="1" as="geometry">
            <Array as="points">
              <mxPoint x="653" y="-300" />
              <mxPoint x="475" y="-300" />
            </Array>
          </mxGeometry>
        </mxCell>
        <mxCell id="JA8_qsAwsX0RzaKksrr4-21" value="&lt;span style=&quot;font-size: 32px;&quot;&gt;permute&lt;/span&gt;" style="rounded=1;whiteSpace=wrap;html=1;" vertex="1" parent="1">
          <mxGeometry x="574.5" y="200" width="157" height="50" as="geometry" />
        </mxCell>
        <mxCell id="JA8_qsAwsX0RzaKksrr4-23" value="&lt;font style=&quot;font-size: 14px;&quot;&gt;(batch_size, nq, n_heads, d_k)&lt;/font&gt;" style="text;html=1;strokeColor=none;fillColor=none;align=center;verticalAlign=middle;whiteSpace=wrap;rounded=0;" vertex="1" parent="1">
          <mxGeometry x="-30" y="270" width="219.5" height="30" as="geometry" />
        </mxCell>
        <mxCell id="JA8_qsAwsX0RzaKksrr4-24" value="&lt;font style=&quot;font-size: 14px;&quot;&gt;(batch_size, seq_len, n_heads, d_k)&lt;/font&gt;" style="text;html=1;strokeColor=none;fillColor=none;align=center;verticalAlign=middle;whiteSpace=wrap;rounded=0;" vertex="1" parent="1">
          <mxGeometry x="220" y="270" width="237.5" height="30" as="geometry" />
        </mxCell>
        <mxCell id="JA8_qsAwsX0RzaKksrr4-25" value="&lt;font style=&quot;font-size: 14px;&quot;&gt;(batch_size, seq_len, n_heads, d_v)&lt;/font&gt;" style="text;html=1;strokeColor=none;fillColor=none;align=center;verticalAlign=middle;whiteSpace=wrap;rounded=0;" vertex="1" parent="1">
          <mxGeometry x="494" y="270" width="237.5" height="30" as="geometry" />
        </mxCell>
        <mxCell id="JA8_qsAwsX0RzaKksrr4-26" value="&lt;font style=&quot;font-size: 14px;&quot;&gt;(batch_size,n_heads,&amp;nbsp;nq, d_k)&lt;/font&gt;" style="text;html=1;strokeColor=none;fillColor=none;align=center;verticalAlign=middle;whiteSpace=wrap;rounded=0;" vertex="1" parent="1">
          <mxGeometry x="-40" y="170" width="210" height="30" as="geometry" />
        </mxCell>
        <mxCell id="JA8_qsAwsX0RzaKksrr4-27" value="&lt;font style=&quot;font-size: 14px;&quot;&gt;(batch_size, n_heads, d_k, seq_len)&lt;/font&gt;" style="text;html=1;strokeColor=none;fillColor=none;align=center;verticalAlign=middle;whiteSpace=wrap;rounded=0;" vertex="1" parent="1">
          <mxGeometry x="238.5" y="171" width="237.5" height="30" as="geometry" />
        </mxCell>
        <mxCell id="JA8_qsAwsX0RzaKksrr4-28" value="&lt;font style=&quot;font-size: 14px;&quot;&gt;(batch_size, n_heads, seq_len, d_v)&lt;/font&gt;" style="text;html=1;strokeColor=none;fillColor=none;align=center;verticalAlign=middle;whiteSpace=wrap;rounded=0;" vertex="1" parent="1">
          <mxGeometry x="514.5" y="171" width="237.5" height="30" as="geometry" />
        </mxCell>
        <mxCell id="JA8_qsAwsX0RzaKksrr4-34" value="" style="edgeStyle=orthogonalEdgeStyle;rounded=0;orthogonalLoop=1;jettySize=auto;html=1;" edge="1" parent="1" source="JA8_qsAwsX0RzaKksrr4-29" target="JA8_qsAwsX0RzaKksrr4-33">
          <mxGeometry relative="1" as="geometry" />
        </mxCell>
        <mxCell id="JA8_qsAwsX0RzaKksrr4-29" value="&lt;span style=&quot;font-size: 32px;&quot;&gt;Matmul&lt;/span&gt;" style="rounded=1;whiteSpace=wrap;html=1;" vertex="1" parent="1">
          <mxGeometry x="211" y="60" width="157" height="50" as="geometry" />
        </mxCell>
        <mxCell id="JA8_qsAwsX0RzaKksrr4-32" value="&lt;font style=&quot;font-size: 14px;&quot;&gt;(batch_size, n_heads, nq, seq_len)&lt;/font&gt;" style="text;html=1;strokeColor=none;fillColor=none;align=center;verticalAlign=middle;whiteSpace=wrap;rounded=0;" vertex="1" parent="1">
          <mxGeometry x="120" y="30" width="237.5" height="30" as="geometry" />
        </mxCell>
        <mxCell id="JA8_qsAwsX0RzaKksrr4-37" value="" style="edgeStyle=orthogonalEdgeStyle;rounded=0;orthogonalLoop=1;jettySize=auto;html=1;" edge="1" parent="1" source="JA8_qsAwsX0RzaKksrr4-33" target="JA8_qsAwsX0RzaKksrr4-36">
          <mxGeometry relative="1" as="geometry" />
        </mxCell>
        <mxCell id="JA8_qsAwsX0RzaKksrr4-33" value="&lt;span style=&quot;font-size: 32px;&quot;&gt;scale&lt;/span&gt;" style="rounded=1;whiteSpace=wrap;html=1;" vertex="1" parent="1">
          <mxGeometry x="240" y="-20" width="99" height="30" as="geometry" />
        </mxCell>
        <mxCell id="JA8_qsAwsX0RzaKksrr4-39" value="" style="edgeStyle=orthogonalEdgeStyle;rounded=0;orthogonalLoop=1;jettySize=auto;html=1;" edge="1" parent="1" source="JA8_qsAwsX0RzaKksrr4-36" target="JA8_qsAwsX0RzaKksrr4-38">
          <mxGeometry relative="1" as="geometry" />
        </mxCell>
        <mxCell id="JA8_qsAwsX0RzaKksrr4-36" value="&lt;span style=&quot;font-size: 32px;&quot;&gt;mask (opt.)&lt;/span&gt;" style="rounded=1;whiteSpace=wrap;html=1;" vertex="1" parent="1">
          <mxGeometry x="205.5" y="-90" width="168" height="40" as="geometry" />
        </mxCell>
        <mxCell id="JA8_qsAwsX0RzaKksrr4-41" value="" style="edgeStyle=orthogonalEdgeStyle;rounded=0;orthogonalLoop=1;jettySize=auto;html=1;" edge="1" parent="1" source="JA8_qsAwsX0RzaKksrr4-38" target="JA8_qsAwsX0RzaKksrr4-40">
          <mxGeometry relative="1" as="geometry" />
        </mxCell>
        <mxCell id="JA8_qsAwsX0RzaKksrr4-38" value="&lt;span style=&quot;font-size: 32px;&quot;&gt;Softmax&lt;/span&gt;" style="rounded=1;whiteSpace=wrap;html=1;" vertex="1" parent="1">
          <mxGeometry x="211" y="-170" width="157" height="50" as="geometry" />
        </mxCell>
        <mxCell id="JA8_qsAwsX0RzaKksrr4-43" style="edgeStyle=orthogonalEdgeStyle;rounded=0;orthogonalLoop=1;jettySize=auto;html=1;entryX=0.25;entryY=1;entryDx=0;entryDy=0;" edge="1" parent="1" source="JA8_qsAwsX0RzaKksrr4-40" target="JA8_qsAwsX0RzaKksrr4-42">
          <mxGeometry relative="1" as="geometry" />
        </mxCell>
        <mxCell id="JA8_qsAwsX0RzaKksrr4-40" value="&lt;span style=&quot;font-size: 32px;&quot;&gt;Dropout&lt;/span&gt;" style="rounded=1;whiteSpace=wrap;html=1;" vertex="1" parent="1">
          <mxGeometry x="211" y="-250" width="157" height="50" as="geometry" />
        </mxCell>
        <mxCell id="JA8_qsAwsX0RzaKksrr4-49" value="" style="edgeStyle=orthogonalEdgeStyle;rounded=0;orthogonalLoop=1;jettySize=auto;html=1;" edge="1" parent="1" source="JA8_qsAwsX0RzaKksrr4-42" target="JA8_qsAwsX0RzaKksrr4-46">
          <mxGeometry relative="1" as="geometry" />
        </mxCell>
        <mxCell id="JA8_qsAwsX0RzaKksrr4-42" value="&lt;span style=&quot;font-size: 32px;&quot;&gt;Matmul&lt;/span&gt;" style="rounded=1;whiteSpace=wrap;html=1;" vertex="1" parent="1">
          <mxGeometry x="357.5" y="-390" width="157" height="50" as="geometry" />
        </mxCell>
        <mxCell id="JA8_qsAwsX0RzaKksrr4-45" value="&lt;font style=&quot;font-size: 14px;&quot;&gt;(batch_size, n_heads, nq, d_v)&lt;/font&gt;" style="text;html=1;strokeColor=none;fillColor=none;align=center;verticalAlign=middle;whiteSpace=wrap;rounded=0;" vertex="1" parent="1">
          <mxGeometry x="220" y="-420" width="237.5" height="30" as="geometry" />
        </mxCell>
        <mxCell id="JA8_qsAwsX0RzaKksrr4-48" value="" style="edgeStyle=orthogonalEdgeStyle;rounded=0;orthogonalLoop=1;jettySize=auto;html=1;" edge="1" parent="1" source="JA8_qsAwsX0RzaKksrr4-46" target="JA8_qsAwsX0RzaKksrr4-47">
          <mxGeometry relative="1" as="geometry" />
        </mxCell>
        <mxCell id="JA8_qsAwsX0RzaKksrr4-46" value="&lt;span style=&quot;font-size: 32px;&quot;&gt;permute&lt;/span&gt;" style="rounded=1;whiteSpace=wrap;html=1;" vertex="1" parent="1">
          <mxGeometry x="357.5" y="-480" width="157" height="50" as="geometry" />
        </mxCell>
        <mxCell id="JA8_qsAwsX0RzaKksrr4-53" value="" style="edgeStyle=orthogonalEdgeStyle;rounded=0;orthogonalLoop=1;jettySize=auto;html=1;" edge="1" parent="1" source="JA8_qsAwsX0RzaKksrr4-47" target="JA8_qsAwsX0RzaKksrr4-52">
          <mxGeometry relative="1" as="geometry" />
        </mxCell>
        <mxCell id="JA8_qsAwsX0RzaKksrr4-47" value="&lt;span style=&quot;font-size: 32px;&quot;&gt;reshape&lt;/span&gt;" style="rounded=1;whiteSpace=wrap;html=1;" vertex="1" parent="1">
          <mxGeometry x="357.5" y="-570" width="157" height="50" as="geometry" />
        </mxCell>
        <mxCell id="JA8_qsAwsX0RzaKksrr4-50" value="&lt;font style=&quot;font-size: 14px;&quot;&gt;(batch_size, nq, n_heads, d_v)&lt;/font&gt;" style="text;html=1;strokeColor=none;fillColor=none;align=center;verticalAlign=middle;whiteSpace=wrap;rounded=0;" vertex="1" parent="1">
          <mxGeometry x="220" y="-510" width="237.5" height="30" as="geometry" />
        </mxCell>
        <mxCell id="JA8_qsAwsX0RzaKksrr4-51" value="&lt;font style=&quot;font-size: 14px;&quot;&gt;(batch_size, nq, n_heads * d_v)&lt;/font&gt;" style="text;html=1;strokeColor=none;fillColor=none;align=center;verticalAlign=middle;whiteSpace=wrap;rounded=0;" vertex="1" parent="1">
          <mxGeometry x="211" y="-599" width="237.5" height="30" as="geometry" />
        </mxCell>
        <mxCell id="JA8_qsAwsX0RzaKksrr4-52" value="&lt;span style=&quot;font-size: 32px;&quot;&gt;Linear&lt;/span&gt;" style="rounded=1;whiteSpace=wrap;html=1;" vertex="1" parent="1">
          <mxGeometry x="357.5" y="-660" width="157" height="50" as="geometry" />
        </mxCell>
        <mxCell id="JA8_qsAwsX0RzaKksrr4-54" value="&lt;font style=&quot;font-size: 14px;&quot;&gt;(batch_size, nq, d_model)&lt;/font&gt;" style="text;html=1;strokeColor=none;fillColor=none;align=center;verticalAlign=middle;whiteSpace=wrap;rounded=0;" vertex="1" parent="1">
          <mxGeometry x="220" y="-700" width="237.5" height="30" as="geometry" />
        </mxCell>
      </root>
    </mxGraphModel>
  </diagram>
</mxfile>
